<svg width="34" height="23" viewBox="0 0 34 23" fill="none" xmlns="http://www.w3.org/2000/svg">
<path d="M0.87 6.34C0.87 4.76 1.34 3.49 2.28 2.53C3.22 1.57 4.43 1.09 5.91 1.09C7.39 1.09 8.6 1.57 9.54 2.53C10.48 3.49 10.95 4.76 10.95 6.34C10.95 7.38 10.73 8.3 10.29 9.1C9.87 9.88 9.27 10.49 8.49 10.93C7.73 11.37 6.86 11.59 5.88 11.59C4.38 11.59 3.17 11.11 2.25 10.15C1.33 9.19 0.87 7.92 0.87 6.34ZM9.21 6.34C9.21 5.1 8.9 4.13 8.28 3.43C7.66 2.73 6.86 2.38 5.88 2.38C4.92 2.38 4.13 2.73 3.51 3.43C2.89 4.13 2.58 5.1 2.58 6.34C2.58 7.58 2.88 8.55 3.48 9.25C4.1 9.93 4.9 10.27 5.88 10.27C6.84 10.27 7.63 9.93 8.25 9.25C8.89 8.55 9.21 7.58 9.21 6.34ZM13.2466 11.5C13.2466 9.44 13.6966 7.6 14.5966 5.98C15.4966 4.34 16.7266 3.07 18.2866 2.17C19.8466 1.25 21.5866 0.789999 23.5066 0.789999C25.8466 0.789999 27.8466 1.35 29.5066 2.47C31.1866 3.57 32.4066 5.13 33.1666 7.15H30.7066C30.1066 5.73 29.1866 4.62 27.9466 3.82C26.7266 3.02 25.2466 2.62 23.5066 2.62C21.9666 2.62 20.5766 2.98 19.3366 3.7C18.1166 4.42 17.1566 5.46 16.4566 6.82C15.7566 8.16 15.4066 9.72 15.4066 11.5C15.4066 13.28 15.7566 14.84 16.4566 16.18C17.1566 17.52 18.1166 18.55 19.3366 19.27C20.5766 19.99 21.9666 20.35 23.5066 20.35C25.2466 20.35 26.7266 19.96 27.9466 19.18C29.1866 18.38 30.1066 17.28 30.7066 15.88H33.1666C32.4066 17.88 31.1866 19.43 29.5066 20.53C27.8266 21.63 25.8266 22.18 23.5066 22.18C21.5866 22.18 19.8466 21.73 18.2866 20.83C16.7266 19.91 15.4966 18.64 14.5966 17.02C13.6966 15.4 13.2466 13.56 13.2466 11.5Z" fill="white"/>
</svg>
