<svg width="26" height="21" viewBox="0 0 26 21" fill="none" xmlns="http://www.w3.org/2000/svg">
<path d="M0.87 5.34C0.87 3.76 1.34 2.49 2.28 1.53C3.22 0.569999 4.43 0.0899992 5.91 0.0899992C7.39 0.0899992 8.6 0.569999 9.54 1.53C10.48 2.49 10.95 3.76 10.95 5.34C10.95 6.38 10.73 7.3 10.29 8.1C9.87 8.88 9.27 9.49 8.49 9.93C7.73 10.37 6.86 10.59 5.88 10.59C4.38 10.59 3.17 10.11 2.25 9.15C1.33 8.19 0.87 6.92 0.87 5.34ZM9.21 5.34C9.21 4.1 8.9 3.13 8.28 2.43C7.66 1.73 6.86 1.38 5.88 1.38C4.92 1.38 4.13 1.73 3.51 2.43C2.89 3.13 2.58 4.1 2.58 5.34C2.58 6.58 2.88 7.55 3.48 8.25C4.1 8.93 4.9 9.27 5.88 9.27C6.84 9.27 7.63 8.93 8.25 8.25C8.89 7.55 9.21 6.58 9.21 5.34ZM25.5466 0.0299982V1.77H16.3066V9.6H24.1066V11.34H16.3066V21H14.2066V0.0299982H25.5466Z" fill="white"/>
</svg>
